<?xml version="1.0" standalone="no"?>
<!DOCTYPE svg PUBLIC "-//W3C//DTD SVG 20010904//EN"
 "http://www.w3.org/TR/2001/REC-SVG-20010904/DTD/svg10.dtd">
<svg version="1.0" xmlns="http://www.w3.org/2000/svg"
 width="128.000000pt" height="128.000000pt" viewBox="0 0 128.000000 128.000000"
 preserveAspectRatio="xMidYMid meet">
<metadata>
Created by potrace 1.14, written by Peter Selinger 2001-2017
</metadata>
<g transform="translate(0.000000,128.000000) scale(0.100000,-0.100000)"
fill="#000000" stroke="none">
<path d="M429 1206 c-20 -8 -56 -28 -80 -46 -47 -34 -74 -89 -85 -170 -4 -31
-13 -51 -30 -63 -33 -25 -30 -43 10 -69 33 -21 34 -24 20 -49 -18 -35 -2 -49
60 -56 27 -3 47 -12 50 -20 11 -27 -25 -81 -119 -181 -109 -116 -137 -175
-137 -284 -1 -98 27 -136 117 -162 89 -26 176 -34 375 -36 279 -2 469 38 519
108 59 84 48 254 -22 324 -8 8 -40 55 -71 105 -31 50 -64 93 -75 96 -21 5 -95
-25 -122 -49 -12 -11 -30 -14 -64 -10 -102 11 -123 69 -57 156 53 69 75 167
57 252 -10 49 -64 111 -122 138 -59 28 -173 36 -224 16z"/>
</g>
</svg>
